<svg xmlns="http://www.w3.org/2000/svg" xmlns:xlink="http://www.w3.org/1999/xlink" width="500" zoomAndPan="magnify" viewBox="0 0 375 299.999988" height="400" preserveAspectRatio="xMidYMid meet" version="1.0"><defs><clipPath id="1b0f986d36"><path d="M 61.132812 138.347656 L 138 138.347656 L 138 175 L 61.132812 175 Z M 61.132812 138.347656 " clip-rule="nonzero"/></clipPath><clipPath id="3e023d1101"><path d="M 192 181 L 258.488281 181 L 258.488281 191 L 192 191 Z M 192 181 " clip-rule="nonzero"/></clipPath><clipPath id="ef78ad74a3"><path d="M 222 191 L 246 191 L 246 197.632812 L 222 197.632812 Z M 222 191 " clip-rule="nonzero"/></clipPath><clipPath id="7d66188285"><path d="M 20.671875 98.953125 L 145 98.953125 L 145 158 L 20.671875 158 Z M 20.671875 98.953125 " clip-rule="nonzero"/></clipPath><clipPath id="2c6fafa293"><path d="M 283 185 L 321 185 L 321 194.898438 L 283 194.898438 Z M 283 185 " clip-rule="nonzero"/></clipPath></defs><rect x="-37.5" width="450" fill="#ffffff" y="-29.999999" height="359.999986" fill-opacity="1"/><rect x="-37.5" width="450" fill="#000000" y="-29.999999" height="359.999986" fill-opacity="1"/><g clip-path="url(#1b0f986d36)"><path fill="#ff9901" d="M 133.125 138.863281 C 134.546875 138.632812 135.972656 138.367188 137.417969 138.347656 C 133.253906 138.992188 129.136719 140.007812 125.199219 141.527344 C 121.574219 142.929688 118.144531 144.847656 115.050781 147.199219 C 112.171875 149.355469 109.589844 151.871094 106.855469 154.199219 C 103.773438 156.753906 100.40625 158.949219 96.925781 160.921875 C 89.460938 165.113281 81.484375 168.3125 73.363281 170.984375 C 69.859375 172.117188 66.328125 173.167969 62.761719 174.074219 C 62.234375 174.191406 61.71875 174.375 61.175781 174.40625 C 63.210938 173.910156 65.210938 173.273438 67.21875 172.679688 C 75.730469 170.0625 84.101562 166.910156 92.007812 162.792969 C 97.585938 159.875 102.9375 156.449219 107.625 152.230469 C 108.742188 151.261719 109.75 150.175781 110.882812 149.222656 C 117.148438 143.792969 124.996094 140.335938 133.125 138.863281 Z M 133.125 138.863281 " fill-opacity="1" fill-rule="nonzero"/></g><path fill="#ff9901" d="M 152.863281 139.527344 C 161.886719 138.9375 170.949219 139.636719 179.886719 140.898438 C 182.222656 141.078125 184.40625 141.976562 186.609375 142.707031 C 193.503906 145.074219 200.324219 147.675781 206.9375 150.746094 C 201.289062 150.238281 195.617188 150.074219 189.945312 150.058594 C 183.171875 150.027344 176.394531 150.226562 169.628906 150.558594 C 168.019531 150.648438 166.386719 150.699219 164.796875 150.40625 C 163.53125 150.171875 162.28125 149.6875 161.292969 148.847656 C 158.597656 146.433594 156.042969 143.855469 153.132812 141.695312 C 152.628906 141.296875 152.003906 141.027344 151.644531 140.476562 C 151.503906 140.292969 151.476562 139.992188 151.691406 139.855469 C 152.027344 139.609375 152.460938 139.574219 152.863281 139.527344 Z M 152.863281 139.527344 " fill-opacity="1" fill-rule="nonzero"/><path fill="#ff9901" d="M 138.414062 141.167969 C 140.71875 140.933594 143.078125 141.042969 145.308594 141.703125 C 148.277344 142.546875 150.953125 144.257812 153.128906 146.421875 C 154.960938 148.230469 156.445312 150.355469 157.6875 152.597656 C 148.769531 152.960938 139.851562 153.289062 130.933594 153.65625 C 129.707031 150.988281 128.125 148.453125 126.039062 146.371094 C 125.695312 146.011719 125.21875 145.722656 125.066406 145.222656 C 125.039062 144.828125 125.476562 144.65625 125.769531 144.511719 C 127.277344 143.878906 128.824219 143.355469 130.386719 142.871094 C 133.007812 142.074219 135.683594 141.4375 138.414062 141.167969 Z M 138.414062 141.167969 " fill-opacity="1" fill-rule="nonzero"/><path fill="#ff9901" d="M 120.960938 146.738281 C 121.550781 146.449219 122.125 146.042969 122.800781 146.015625 C 123.320312 146.070312 123.71875 146.453125 124.109375 146.765625 C 125.253906 147.796875 126.144531 149.070312 126.988281 150.351562 C 127.460938 151.078125 127.90625 151.820312 128.320312 152.585938 C 128.460938 152.863281 128.621094 153.203125 128.480469 153.511719 C 128.273438 153.828125 127.847656 153.792969 127.515625 153.800781 C 125.070312 153.769531 122.628906 153.8125 120.183594 153.882812 C 117.84375 153.988281 115.5 154.113281 113.1875 154.492188 C 112.34375 154.636719 111.488281 154.796875 110.707031 155.152344 C 112.488281 152.109375 115.269531 149.769531 118.328125 148.074219 C 119.183594 147.585938 120.078125 147.171875 120.960938 146.738281 Z M 120.960938 146.738281 " fill-opacity="1" fill-rule="nonzero"/><path fill="#ff9901" d="M 177.6875 152.074219 C 183.03125 151.945312 188.375 151.804688 193.714844 151.558594 C 199.472656 151.363281 205.25 151.445312 210.992188 151.976562 C 215.960938 152.410156 220.917969 152.941406 225.859375 153.59375 C 228.46875 153.941406 231.070312 154.320312 233.652344 154.835938 C 237.472656 155.578125 241.339844 156.335938 244.921875 157.90625 C 246 158.386719 247.054688 158.929688 248.054688 159.554688 C 246.019531 158.769531 243.933594 158.101562 241.789062 157.691406 C 240.878906 157.503906 239.949219 157.414062 239.039062 157.234375 C 238.003906 157.148438 236.964844 157.242188 235.929688 157.230469 C 232.707031 157.253906 229.476562 157.355469 226.28125 157.792969 C 225.863281 157.859375 225.382812 157.933594 225.121094 158.304688 C 224.890625 158.671875 225.066406 159.117188 225.230469 159.472656 C 226.339844 161.425781 227.332031 163.441406 228.359375 165.4375 C 229.0625 166.84375 229.796875 168.234375 230.480469 169.652344 C 227.683594 165.195312 223.824219 161.417969 219.351562 158.644531 C 218.585938 158.175781 217.804688 157.730469 216.996094 157.347656 C 215.890625 156.839844 214.695312 156.5625 213.5 156.371094 C 211.199219 156.074219 208.929688 155.582031 206.640625 155.203125 C 195.730469 153.3125 184.671875 152.207031 173.597656 152.1875 C 174.957031 152.09375 176.324219 152.113281 177.6875 152.074219 Z M 177.6875 152.074219 " fill-opacity="1" fill-rule="nonzero"/><path fill="#ff9901" d="M 204.921875 158.125 C 206.648438 158.488281 208.390625 159.117188 209.71875 160.320312 C 210.488281 161.003906 211.054688 161.917969 211.300781 162.917969 C 211.464844 163.578125 211.378906 164.316406 210.972656 164.871094 C 210.480469 165.550781 209.691406 165.945312 208.914062 166.195312 C 209.628906 165.652344 210.363281 165.035156 210.664062 164.15625 C 210.953125 163.335938 210.683594 162.429688 210.179688 161.753906 C 209.394531 160.679688 208.277344 159.90625 207.148438 159.238281 C 206.433594 158.816406 205.6875 158.449219 204.921875 158.125 Z M 204.921875 158.125 " fill-opacity="1" fill-rule="nonzero"/><path fill="#ff9901" d="M 238.144531 158.121094 C 238.625 158.058594 239.113281 158.035156 239.597656 158.089844 C 241.875 158.546875 244.183594 158.945312 246.398438 159.671875 C 247.046875 159.886719 247.695312 160.148438 248.222656 160.589844 C 248.929688 161.144531 249.382812 161.957031 249.671875 162.792969 C 250.183594 164.296875 250.71875 165.796875 251.089844 167.34375 C 251.238281 168.003906 251.410156 168.738281 251.066406 169.371094 C 250.871094 169.773438 250.398438 169.976562 249.964844 169.945312 C 245.609375 169.617188 241.242188 169.445312 236.875 169.375 C 235.753906 169.328125 234.597656 169.480469 233.519531 169.109375 C 232.308594 168.691406 231.429688 167.691406 230.714844 166.671875 C 229.546875 164.972656 228.503906 163.191406 227.535156 161.375 C 227.234375 160.757812 226.953125 160.054688 227.128906 159.367188 C 227.265625 158.859375 227.808594 158.632812 228.289062 158.601562 C 231.5625 158.28125 234.863281 158.28125 238.144531 158.121094 Z M 238.144531 158.121094 " fill-opacity="1" fill-rule="nonzero"/><path fill="#ff9901" d="M 202.21875 158.234375 C 203.925781 158.097656 205.539062 158.867188 206.964844 159.71875 C 207.878906 160.273438 208.761719 160.929688 209.378906 161.8125 C 209.878906 162.53125 210.136719 163.445312 209.976562 164.316406 C 209.738281 165.101562 209.023438 165.644531 208.261719 165.871094 C 207.289062 166.15625 206.25 166.117188 205.261719 165.929688 C 202.925781 165.476562 200.910156 163.78125 199.964844 161.617188 C 199.667969 160.964844 199.625 160.148438 200.09375 159.566406 C 200.628906 158.917969 201.347656 158.3125 202.21875 158.234375 Z M 202.21875 158.234375 " fill-opacity="1" fill-rule="nonzero"/><path fill="#ff9901" d="M 213.355469 158.277344 C 215.042969 157.992188 216.734375 158.652344 218.105469 159.601562 C 218.980469 160.203125 219.757812 160.933594 220.476562 161.714844 C 221.136719 162.390625 221.554688 163.273438 221.785156 164.179688 C 221.949219 164.910156 221.957031 165.757812 221.480469 166.378906 C 220.914062 167.089844 219.9375 167.320312 219.066406 167.304688 C 216.730469 167.082031 214.511719 165.816406 213.132812 163.917969 C 212.632812 163.234375 212.226562 162.480469 211.925781 161.691406 C 211.679688 160.96875 211.609375 160.144531 211.917969 159.429688 C 212.167969 158.835938 212.722656 158.394531 213.355469 158.277344 Z M 213.355469 158.277344 " fill-opacity="1" fill-rule="nonzero"/><path fill="#ff9901" d="M 217.269531 158.53125 C 218.757812 159.339844 220.246094 160.1875 221.523438 161.3125 C 222.164062 161.894531 222.785156 162.546875 223.125 163.363281 C 223.386719 163.96875 223.417969 164.699219 223.113281 165.296875 C 222.882812 165.789062 222.476562 166.160156 222.054688 166.488281 C 222.492188 165.691406 222.597656 164.726562 222.308594 163.859375 C 221.863281 162.476562 220.847656 161.378906 219.792969 160.421875 C 219.011719 159.710938 218.132812 159.132812 217.269531 158.53125 Z M 217.269531 158.53125 " fill-opacity="1" fill-rule="nonzero"/><path fill="#ff9901" d="M 250.109375 161.695312 C 250.148438 161.671875 250.234375 161.628906 250.277344 161.605469 C 250.691406 161.691406 251.007812 162.003906 251.308594 162.289062 C 252.171875 163.203125 252.769531 164.332031 253.28125 165.472656 C 253.617188 166.269531 253.988281 167.070312 254.109375 167.933594 C 254.144531 168.304688 254.179688 168.746094 253.90625 169.039062 C 253.730469 169.152344 253.542969 169.011719 253.414062 168.902344 C 252.292969 167.796875 251.734375 166.277344 251.023438 164.902344 C 250.652344 164.105469 250.25 163.308594 250.039062 162.445312 C 250.003906 162.203125 249.929688 161.902344 250.109375 161.695312 Z M 250.109375 161.695312 " fill-opacity="1" fill-rule="nonzero"/><path fill="#ff9901" d="M 174.820312 164.421875 C 176.707031 164.085938 178.707031 164.097656 180.511719 164.804688 C 182.097656 165.398438 183.46875 166.484375 184.527344 167.800781 C 185.84375 169.4375 186.722656 171.390625 187.308594 173.398438 C 187.9375 175.605469 188.238281 177.90625 188.207031 180.199219 C 188.089844 182.238281 187.816406 184.28125 187.277344 186.257812 C 186.765625 188.113281 186.003906 189.921875 184.835938 191.460938 C 183.8125 192.824219 182.445312 193.941406 180.867188 194.597656 C 179.078125 195.355469 177.078125 195.539062 175.160156 195.285156 C 176.832031 195.125 178.484375 194.585938 179.832031 193.574219 C 181.363281 192.441406 182.464844 190.820312 183.21875 189.089844 C 184.195312 186.84375 184.6875 184.414062 184.96875 181.992188 C 185.277344 179.632812 185.234375 177.234375 184.9375 174.875 C 184.679688 172.929688 184.203125 170.988281 183.300781 169.238281 C 182.523438 167.730469 181.382812 166.386719 179.90625 165.527344 C 178.382812 164.617188 176.574219 164.308594 174.820312 164.421875 Z M 174.820312 164.421875 " fill-opacity="1" fill-rule="nonzero"/><path fill="#ff9901" d="M 111.703125 169.671875 C 112.578125 171.175781 113.519531 172.664062 114.75 173.90625 C 115.46875 174.617188 116.304688 175.226562 117.253906 175.589844 C 118.25 175.984375 119.328125 176.082031 120.390625 176.160156 C 133.238281 176.941406 146.085938 177.667969 158.9375 178.421875 C 159.714844 178.492188 160.503906 178.453125 161.277344 178.589844 C 155.191406 178.457031 149.101562 178.398438 143.011719 178.289062 C 135.195312 178.175781 127.375 178.042969 119.558594 177.929688 C 118.546875 177.886719 117.515625 177.984375 116.519531 177.769531 C 115.023438 177.433594 113.859375 176.191406 113.394531 174.761719 C 112.839844 173.0625 112.234375 171.378906 111.703125 169.671875 Z M 111.703125 169.671875 " fill-opacity="1" fill-rule="nonzero"/><path fill="#ff9901" d="M 120.917969 180.3125 C 121.371094 180.257812 121.816406 180.152344 122.273438 180.15625 C 130.757812 180.488281 139.246094 180.792969 147.734375 181.046875 C 150.808594 181.121094 153.878906 181.226562 156.957031 181.234375 C 157.300781 181.242188 157.640625 181.277344 157.984375 181.320312 C 156.765625 181.289062 155.546875 181.421875 154.332031 181.4375 C 146.617188 181.753906 138.898438 181.773438 131.179688 181.738281 C 125.097656 181.707031 119.019531 181.601562 112.9375 181.457031 C 115.59375 181.054688 118.257812 180.699219 120.917969 180.3125 Z M 120.917969 180.3125 " fill-opacity="1" fill-rule="nonzero"/><g clip-path="url(#3e023d1101)"><path fill="#ff9901" d="M 192.226562 181.25 C 192.296875 181.066406 192.503906 181.097656 192.660156 181.097656 C 197.214844 181.3125 201.769531 181.511719 206.328125 181.402344 C 207.039062 182.808594 208.257812 183.964844 209.746094 184.507812 C 210.707031 184.875 211.746094 185.023438 212.777344 184.976562 C 221.003906 185.496094 229.246094 185.925781 237.496094 185.808594 C 240.429688 185.699219 243.367188 185.523438 246.292969 185.25 C 248.566406 185.027344 250.84375 184.757812 253.082031 184.285156 C 254.042969 184.070312 255.007812 183.835938 255.921875 183.453125 C 256.394531 183.246094 256.894531 183.011719 257.183594 182.558594 C 257.652344 183.160156 257.863281 183.914062 258.078125 184.636719 C 258.277344 185.320312 258.144531 186.101562 257.675781 186.648438 C 256.992188 187.445312 255.984375 187.851562 255.015625 188.179688 C 252.996094 188.816406 250.882812 189.09375 248.78125 189.34375 C 243.332031 189.917969 237.851562 190.078125 232.375 190.261719 C 221.054688 190.632812 209.710938 190.300781 198.425781 189.34375 C 196.605469 189.179688 194.789062 189.011719 192.976562 188.796875 C 192.832031 188.757812 192.601562 188.777344 192.574219 188.585938 C 192.582031 186.140625 192.449219 183.6875 192.226562 181.25 Z M 192.226562 181.25 " fill-opacity="1" fill-rule="nonzero"/></g><path fill="#ff9901" d="M 184.289062 193.5 C 187.355469 190.855469 188.929688 186.789062 189.101562 182.800781 C 189.375 183.902344 189.363281 185.046875 189.4375 186.171875 C 189.472656 187.671875 189.519531 189.171875 189.433594 190.667969 C 189.496094 190.980469 189.882812 191.0625 190.148438 191.121094 C 191.457031 191.320312 192.78125 191.300781 194.097656 191.40625 C 193.726562 192.023438 193.167969 192.496094 192.664062 193.003906 C 191.882812 193.753906 191.066406 194.46875 190.230469 195.15625 C 189.273438 195.9375 187.960938 195.882812 186.800781 196.03125 C 184.304688 196.207031 181.789062 196.394531 179.289062 196.164062 C 181.113281 195.632812 182.847656 194.746094 184.289062 193.5 Z M 184.289062 193.5 " fill-opacity="1" fill-rule="nonzero"/><path fill="#ff9901" d="M 93.25 184.859375 C 95.5625 185.039062 97.867188 185.332031 100.175781 185.546875 C 110.855469 186.625 121.539062 187.652344 132.230469 188.582031 C 139.382812 189.195312 146.535156 189.785156 153.703125 190.199219 C 155.460938 190.269531 157.21875 190.402344 158.976562 190.414062 C 156.136719 190.457031 153.296875 190.378906 150.457031 190.359375 C 143.261719 190.296875 136.070312 190.238281 128.878906 190.210938 C 128.363281 190.199219 127.847656 190.226562 127.332031 190.1875 C 115.972656 188.421875 104.613281 186.617188 93.25 184.859375 Z M 93.25 184.859375 " fill-opacity="1" fill-rule="nonzero"/><g clip-path="url(#ef78ad74a3)"><path fill="#ff9901" d="M 238.542969 191.976562 C 240.769531 191.914062 242.992188 191.8125 245.210938 191.625 C 244.832031 192.320312 244.179688 192.8125 243.585938 193.316406 C 240.828125 195.46875 237.453125 196.917969 233.9375 197.121094 C 231.695312 197.25 229.425781 196.808594 227.398438 195.847656 C 225.4375 194.9375 223.703125 193.59375 222.207031 192.039062 C 227.652344 192.109375 233.101562 192.121094 238.542969 191.976562 Z M 238.542969 191.976562 " fill-opacity="1" fill-rule="nonzero"/></g><g clip-path="url(#7d66188285)"><path fill="#ffffff" d="M 137.964844 99.796875 C 140.28125 99.417969 142.605469 98.988281 144.960938 98.953125 C 138.175781 100 131.464844 101.660156 125.054688 104.136719 C 119.144531 106.421875 113.5625 109.542969 108.519531 113.378906 C 103.828125 116.886719 99.625 120.984375 95.164062 124.777344 C 90.144531 128.945312 84.660156 132.519531 78.988281 135.730469 C 66.828125 142.558594 53.828125 147.773438 40.597656 152.125 C 34.894531 153.972656 29.140625 155.683594 23.328125 157.160156 C 22.46875 157.351562 21.628906 157.648438 20.746094 157.703125 C 24.0625 156.894531 27.320312 155.855469 30.589844 154.890625 C 44.453125 150.625 58.097656 145.484375 70.976562 138.78125 C 80.0625 134.027344 88.78125 128.445312 96.421875 121.570312 C 98.242188 119.996094 99.882812 118.226562 101.730469 116.671875 C 111.9375 107.824219 124.722656 102.195312 137.964844 99.796875 Z M 137.964844 99.796875 " fill-opacity="1" fill-rule="nonzero"/></g><path fill="#ffffff" d="M 170.125 100.875 C 184.824219 99.910156 199.585938 101.050781 214.152344 103.109375 C 217.960938 103.402344 221.515625 104.867188 225.101562 106.054688 C 236.335938 109.910156 247.449219 114.148438 258.222656 119.148438 C 249.023438 118.328125 239.777344 118.054688 230.539062 118.03125 C 219.5 117.984375 208.460938 118.304688 197.4375 118.851562 C 194.8125 118.996094 192.160156 119.078125 189.5625 118.597656 C 187.5 118.214844 185.46875 117.429688 183.855469 116.0625 C 179.46875 112.128906 175.300781 107.925781 170.5625 104.40625 C 169.742188 103.761719 168.722656 103.320312 168.136719 102.421875 C 167.90625 102.125 167.867188 101.636719 168.214844 101.40625 C 168.761719 101.007812 169.46875 100.953125 170.125 100.875 Z M 170.125 100.875 " fill-opacity="1" fill-rule="nonzero"/><path fill="#ffffff" d="M 146.585938 103.550781 C 150.335938 103.164062 154.183594 103.34375 157.816406 104.421875 C 162.648438 105.796875 167.007812 108.582031 170.554688 112.109375 C 173.539062 115.054688 175.960938 118.515625 177.984375 122.171875 C 163.457031 122.757812 148.925781 123.296875 134.394531 123.894531 C 132.398438 119.550781 129.820312 115.414062 126.421875 112.027344 C 125.863281 111.4375 125.085938 110.96875 124.839844 110.152344 C 124.792969 109.507812 125.503906 109.230469 125.980469 108.996094 C 128.4375 107.960938 130.960938 107.109375 133.503906 106.320312 C 137.773438 105.023438 142.136719 103.984375 146.585938 103.550781 Z M 146.585938 103.550781 " fill-opacity="1" fill-rule="nonzero"/><path fill="#ffffff" d="M 118.148438 112.621094 C 119.105469 112.148438 120.042969 111.488281 121.144531 111.445312 C 121.988281 111.535156 122.640625 112.160156 123.273438 112.664062 C 125.140625 114.347656 126.589844 116.425781 127.96875 118.507812 C 128.734375 119.695312 129.464844 120.90625 130.140625 122.148438 C 130.367188 122.601562 130.628906 123.15625 130.398438 123.660156 C 130.0625 124.175781 129.367188 124.117188 128.828125 124.132812 C 124.84375 124.078125 120.863281 124.148438 116.882812 124.265625 C 113.070312 124.433594 109.25 124.640625 105.480469 125.253906 C 104.109375 125.492188 102.71875 125.753906 101.441406 126.332031 C 104.34375 121.375 108.878906 117.5625 113.859375 114.800781 C 115.253906 114.003906 116.710938 113.332031 118.148438 112.621094 Z M 118.148438 112.621094 " fill-opacity="1" fill-rule="nonzero"/><path fill="#ffffff" d="M 210.570312 121.316406 C 219.273438 121.105469 227.980469 120.878906 236.675781 120.476562 C 246.0625 120.15625 255.472656 120.289062 264.828125 121.15625 C 272.921875 121.863281 281 122.730469 289.050781 123.789062 C 293.300781 124.363281 297.542969 124.976562 301.746094 125.816406 C 307.972656 127.027344 314.269531 128.261719 320.109375 130.820312 C 321.863281 131.601562 323.582031 132.484375 325.210938 133.503906 C 321.894531 132.226562 318.496094 131.136719 315.003906 130.46875 C 313.519531 130.164062 312.007812 130.015625 310.523438 129.722656 C 308.835938 129.582031 307.144531 129.734375 305.457031 129.714844 C 300.207031 129.757812 294.945312 129.921875 289.738281 130.636719 C 289.058594 130.742188 288.269531 130.863281 287.847656 131.46875 C 287.472656 132.066406 287.753906 132.792969 288.023438 133.371094 C 289.832031 136.554688 291.449219 139.835938 293.125 143.085938 C 294.269531 145.378906 295.46875 147.648438 296.578125 149.957031 C 292.019531 142.691406 285.734375 136.539062 278.449219 132.023438 C 277.203125 131.257812 275.929688 130.53125 274.605469 129.90625 C 272.808594 129.078125 270.863281 128.625 268.914062 128.316406 C 265.164062 127.832031 261.46875 127.03125 257.742188 126.417969 C 239.964844 123.335938 221.945312 121.53125 203.902344 121.503906 C 206.121094 121.347656 208.347656 121.378906 210.570312 121.316406 Z M 210.570312 121.316406 " fill-opacity="1" fill-rule="nonzero"/><path fill="#ffffff" d="M 254.9375 131.175781 C 257.753906 131.769531 260.59375 132.792969 262.753906 134.753906 C 264.007812 135.867188 264.929688 137.355469 265.332031 138.984375 C 265.59375 140.058594 265.457031 141.261719 264.792969 142.164062 C 263.992188 143.269531 262.710938 143.914062 261.441406 144.324219 C 262.605469 143.4375 263.804688 142.433594 264.292969 141.003906 C 264.761719 139.664062 264.320312 138.1875 263.503906 137.085938 C 262.222656 135.339844 260.40625 134.082031 258.566406 132.984375 C 257.398438 132.304688 256.183594 131.703125 254.9375 131.175781 Z M 254.9375 131.175781 " fill-opacity="1" fill-rule="nonzero"/><path fill="#ffffff" d="M 309.066406 131.167969 C 309.847656 131.070312 310.644531 131.03125 311.429688 131.117188 C 315.144531 131.863281 318.902344 132.511719 322.511719 133.699219 C 323.566406 134.046875 324.625 134.472656 325.484375 135.191406 C 326.636719 136.097656 327.371094 137.417969 327.84375 138.78125 C 328.679688 141.230469 329.554688 143.675781 330.15625 146.191406 C 330.398438 147.269531 330.679688 148.46875 330.117188 149.496094 C 329.796875 150.15625 329.03125 150.480469 328.324219 150.433594 C 321.226562 149.894531 314.109375 149.617188 306.996094 149.5 C 305.171875 149.425781 303.289062 149.675781 301.53125 149.070312 C 299.558594 148.390625 298.121094 146.757812 296.960938 145.097656 C 295.058594 142.332031 293.359375 139.425781 291.777344 136.46875 C 291.289062 135.46875 290.832031 134.320312 291.117188 133.195312 C 291.339844 132.371094 292.226562 132.003906 293.007812 131.953125 C 298.34375 131.425781 303.714844 131.433594 309.066406 131.167969 Z M 309.066406 131.167969 " fill-opacity="1" fill-rule="nonzero"/><path fill="#ffffff" d="M 250.535156 131.351562 C 253.3125 131.128906 255.945312 132.386719 258.269531 133.773438 C 259.753906 134.675781 261.195312 135.742188 262.199219 137.183594 C 263.015625 138.355469 263.4375 139.84375 263.171875 141.261719 C 262.789062 142.539062 261.621094 143.425781 260.378906 143.796875 C 258.796875 144.261719 257.097656 144.199219 255.492188 143.890625 C 251.6875 143.152344 248.402344 140.390625 246.859375 136.863281 C 246.378906 135.804688 246.308594 134.472656 247.074219 133.527344 C 247.945312 132.464844 249.113281 131.476562 250.535156 131.351562 Z M 250.535156 131.351562 " fill-opacity="1" fill-rule="nonzero"/><path fill="#ffffff" d="M 268.675781 131.425781 C 271.425781 130.957031 274.179688 132.035156 276.414062 133.582031 C 277.84375 134.558594 279.109375 135.753906 280.28125 137.023438 C 281.351562 138.125 282.035156 139.5625 282.414062 141.039062 C 282.675781 142.230469 282.695312 143.609375 281.914062 144.621094 C 280.992188 145.78125 279.398438 146.160156 277.980469 146.128906 C 274.175781 145.765625 270.5625 143.703125 268.316406 140.609375 C 267.5 139.5 266.839844 138.273438 266.347656 136.988281 C 265.945312 135.808594 265.835938 134.46875 266.335938 133.296875 C 266.742188 132.335938 267.648438 131.613281 268.675781 131.425781 Z M 268.675781 131.425781 " fill-opacity="1" fill-rule="nonzero"/><path fill="#ffffff" d="M 275.058594 131.839844 C 277.480469 133.15625 279.902344 134.535156 281.984375 136.363281 C 283.03125 137.316406 284.039062 138.382812 284.59375 139.707031 C 285.023438 140.695312 285.070312 141.882812 284.578125 142.859375 C 284.199219 143.660156 283.535156 144.265625 282.847656 144.800781 C 283.5625 143.503906 283.738281 141.929688 283.265625 140.519531 C 282.535156 138.269531 280.882812 136.472656 279.164062 134.917969 C 277.894531 133.761719 276.460938 132.816406 275.058594 131.839844 Z M 275.058594 131.839844 " fill-opacity="1" fill-rule="nonzero"/><path fill="#ffffff" d="M 328.554688 136.992188 C 328.625 136.953125 328.761719 136.878906 328.832031 136.84375 C 329.503906 136.984375 330.023438 137.496094 330.507812 137.957031 C 331.917969 139.449219 332.894531 141.285156 333.722656 143.148438 C 334.269531 144.445312 334.878906 145.746094 335.074219 147.15625 C 335.132812 147.761719 335.191406 148.476562 334.742188 148.957031 C 334.460938 149.140625 334.152344 148.910156 333.941406 148.730469 C 332.117188 146.929688 331.203125 144.457031 330.050781 142.21875 C 329.441406 140.917969 328.785156 139.617188 328.445312 138.214844 C 328.386719 137.816406 328.265625 137.328125 328.554688 136.992188 Z M 328.554688 136.992188 " fill-opacity="1" fill-rule="nonzero"/><path fill="#ffffff" d="M 205.894531 141.433594 C 208.972656 140.882812 212.226562 140.90625 215.167969 142.054688 C 217.753906 143.027344 219.988281 144.796875 221.710938 146.9375 C 223.855469 149.605469 225.289062 152.789062 226.242188 156.0625 C 227.265625 159.65625 227.753906 163.402344 227.703125 167.136719 C 227.511719 170.464844 227.070312 173.789062 226.191406 177.011719 C 225.359375 180.03125 224.117188 182.980469 222.214844 185.488281 C 220.542969 187.707031 218.320312 189.527344 215.746094 190.597656 C 212.832031 191.832031 209.574219 192.128906 206.453125 191.71875 C 209.171875 191.457031 211.863281 190.578125 214.0625 188.929688 C 216.554688 187.085938 218.351562 184.441406 219.582031 181.625 C 221.171875 177.964844 221.96875 174.007812 222.429688 170.058594 C 222.929688 166.214844 222.859375 162.308594 222.378906 158.464844 C 221.957031 155.296875 221.1875 152.132812 219.710938 149.277344 C 218.445312 146.824219 216.585938 144.632812 214.183594 143.234375 C 211.703125 141.75 208.753906 141.25 205.894531 141.433594 Z M 205.894531 141.433594 " fill-opacity="1" fill-rule="nonzero"/><path fill="#ffffff" d="M 103.0625 149.988281 C 104.488281 152.4375 106.023438 154.863281 108.03125 156.886719 C 109.203125 158.042969 110.558594 159.039062 112.105469 159.628906 C 113.730469 160.269531 115.488281 160.433594 117.214844 160.558594 C 138.148438 161.828125 159.082031 163.015625 180.015625 164.242188 C 181.285156 164.359375 182.570312 164.296875 183.832031 164.519531 C 173.914062 164.296875 163.992188 164.203125 154.074219 164.023438 C 141.335938 163.84375 128.597656 163.625 115.859375 163.445312 C 114.210938 163.375 112.535156 163.527344 110.910156 163.179688 C 108.476562 162.632812 106.578125 160.609375 105.824219 158.28125 C 104.914062 155.511719 103.925781 152.769531 103.0625 149.988281 Z M 103.0625 149.988281 " fill-opacity="1" fill-rule="nonzero"/><path fill="#ffffff" d="M 118.078125 167.324219 C 118.8125 167.238281 119.542969 167.0625 120.289062 167.066406 C 134.113281 167.613281 147.9375 168.109375 161.765625 168.519531 C 166.773438 168.644531 171.78125 168.8125 176.789062 168.828125 C 177.351562 168.839844 177.910156 168.890625 178.464844 168.964844 C 176.480469 168.914062 174.5 169.132812 172.515625 169.160156 C 159.949219 169.667969 147.371094 169.699219 134.800781 169.644531 C 124.890625 169.597656 114.980469 169.425781 105.078125 169.191406 C 109.40625 168.53125 113.746094 167.953125 118.078125 167.324219 Z M 118.078125 167.324219 " fill-opacity="1" fill-rule="nonzero"/><path fill="#ffffff" d="M 234.253906 168.847656 C 234.371094 168.550781 234.703125 168.601562 234.964844 168.601562 C 242.378906 168.957031 249.800781 169.273438 257.226562 169.101562 C 258.386719 171.390625 260.371094 173.269531 262.796875 174.15625 C 264.363281 174.757812 266.058594 174.996094 267.738281 174.921875 C 281.140625 175.769531 294.570312 176.46875 308.007812 176.277344 C 312.792969 176.097656 317.570312 175.808594 322.339844 175.371094 C 326.046875 175.003906 329.75 174.566406 333.398438 173.796875 C 334.964844 173.449219 336.539062 173.066406 338.027344 172.441406 C 338.796875 172.101562 339.613281 171.71875 340.082031 170.980469 C 340.847656 171.964844 341.191406 173.191406 341.542969 174.371094 C 341.867188 175.484375 341.652344 176.757812 340.882812 177.644531 C 339.773438 178.945312 338.132812 179.605469 336.554688 180.136719 C 333.261719 181.179688 329.816406 181.632812 326.398438 182.035156 C 317.519531 182.96875 308.585938 183.234375 299.667969 183.535156 C 281.21875 184.140625 262.742188 183.59375 244.355469 182.035156 C 241.390625 181.765625 238.429688 181.496094 235.472656 181.144531 C 235.242188 181.078125 234.863281 181.117188 234.824219 180.804688 C 234.832031 176.816406 234.621094 172.820312 234.253906 168.847656 Z M 234.253906 168.847656 " fill-opacity="1" fill-rule="nonzero"/><path fill="#ffffff" d="M 221.320312 188.808594 C 226.320312 184.496094 228.882812 177.875 229.164062 171.378906 C 229.609375 173.171875 229.589844 175.039062 229.707031 176.871094 C 229.765625 179.3125 229.84375 181.757812 229.703125 184.199219 C 229.808594 184.699219 230.433594 184.835938 230.871094 184.933594 C 233 185.257812 235.160156 185.226562 237.300781 185.394531 C 236.699219 186.402344 235.789062 187.175781 234.964844 187.996094 C 233.695312 189.21875 232.367188 190.386719 231.003906 191.507812 C 229.445312 192.777344 227.304688 192.6875 225.414062 192.929688 C 221.347656 193.21875 217.25 193.523438 213.179688 193.148438 C 216.152344 192.28125 218.972656 190.839844 221.320312 188.808594 Z M 221.320312 188.808594 " fill-opacity="1" fill-rule="nonzero"/><path fill="#ffffff" d="M 73.003906 174.730469 C 76.769531 175.023438 80.519531 175.503906 84.285156 175.851562 C 101.679688 177.605469 119.085938 179.28125 136.507812 180.796875 C 148.160156 181.796875 159.816406 182.753906 171.492188 183.429688 C 174.355469 183.542969 177.21875 183.761719 180.082031 183.78125 C 175.457031 183.847656 170.828125 183.722656 166.203125 183.6875 C 154.484375 183.589844 142.765625 183.496094 131.042969 183.449219 C 130.207031 183.429688 129.367188 183.476562 128.53125 183.414062 C 110.019531 180.535156 91.515625 177.59375 73.003906 174.730469 Z M 73.003906 174.730469 " fill-opacity="1" fill-rule="nonzero"/><g clip-path="url(#2c6fafa293)"><path fill="#ffffff" d="M 309.714844 186.324219 C 313.34375 186.226562 316.964844 186.058594 320.578125 185.753906 C 319.957031 186.890625 318.898438 187.6875 317.929688 188.507812 C 313.433594 192.011719 307.9375 194.378906 302.210938 194.710938 C 298.558594 194.917969 294.859375 194.199219 291.554688 192.632812 C 288.363281 191.148438 285.535156 188.957031 283.097656 186.429688 C 291.96875 186.539062 300.847656 186.558594 309.714844 186.324219 Z M 309.714844 186.324219 " fill-opacity="1" fill-rule="nonzero"/></g></svg>