<svg xmlns="http://www.w3.org/2000/svg" xmlns:xlink="http://www.w3.org/1999/xlink" width="500" zoomAndPan="magnify" viewBox="0 0 375 374.999991" height="500" preserveAspectRatio="xMidYMid meet" version="1.0"><defs><g/><clipPath id="8b61f71937"><path d="M 72 124.128906 L 157 124.128906 L 157 164 L 72 164 Z M 72 124.128906 " clip-rule="nonzero"/></clipPath><clipPath id="889f932dc4"><path d="M 216 171 L 289.457031 171 L 289.457031 182 L 216 182 Z M 216 171 " clip-rule="nonzero"/></clipPath><clipPath id="0e55a5f205"><path d="M 249 182 L 276 182 L 276 189.378906 L 249 189.378906 Z M 249 182 " clip-rule="nonzero"/></clipPath><clipPath id="b08e7bace0"><path d="M 10.042969 96.113281 L 148 96.113281 L 148 162 L 10.042969 162 Z M 10.042969 96.113281 " clip-rule="nonzero"/></clipPath></defs><rect x="-37.5" width="450" fill="#ffffff" y="-37.499999" height="449.999989" fill-opacity="1"/><rect x="-37.5" width="450" fill="#000000" y="-37.499999" height="449.999989" fill-opacity="1"/><g clip-path="url(#8b61f71937)"><path fill="#ff9901" d="M 151.488281 124.703125 C 153.058594 124.445312 154.636719 124.152344 156.230469 124.132812 C 151.632812 124.839844 147.082031 125.964844 142.734375 127.644531 C 138.726562 129.191406 134.941406 131.308594 131.523438 133.910156 C 128.339844 136.289062 125.492188 139.070312 122.46875 141.640625 C 119.066406 144.464844 115.34375 146.890625 111.5 149.066406 C 103.253906 153.695312 94.441406 157.234375 85.46875 160.183594 C 81.601562 161.4375 77.699219 162.597656 73.757812 163.597656 C 73.175781 163.726562 72.605469 163.929688 72.007812 163.964844 C 74.257812 163.417969 76.464844 162.710938 78.683594 162.058594 C 88.085938 159.167969 97.335938 155.683594 106.066406 151.136719 C 112.230469 147.910156 118.140625 144.128906 123.320312 139.46875 C 124.554688 138.398438 125.667969 137.199219 126.917969 136.144531 C 133.84375 130.148438 142.507812 126.328125 151.488281 124.703125 Z M 151.488281 124.703125 " fill-opacity="1" fill-rule="nonzero"/></g><path fill="#ff9901" d="M 173.292969 125.433594 C 183.261719 124.78125 193.273438 125.554688 203.148438 126.949219 C 205.730469 127.148438 208.140625 128.140625 210.570312 128.945312 C 218.1875 131.558594 225.726562 134.433594 233.03125 137.824219 C 226.792969 137.265625 220.523438 137.082031 214.257812 137.066406 C 206.773438 137.035156 199.289062 137.253906 191.816406 137.621094 C 190.035156 137.71875 188.234375 137.777344 186.476562 137.449219 C 185.078125 137.191406 183.699219 136.660156 182.605469 135.730469 C 179.628906 133.066406 176.804688 130.214844 173.589844 127.828125 C 173.035156 127.390625 172.34375 127.089844 171.945312 126.484375 C 171.792969 126.28125 171.765625 125.949219 172 125.796875 C 172.371094 125.523438 172.851562 125.484375 173.292969 125.433594 Z M 173.292969 125.433594 " fill-opacity="1" fill-rule="nonzero"/><path fill="#ff9901" d="M 157.332031 127.246094 C 159.878906 126.984375 162.484375 127.109375 164.949219 127.835938 C 168.226562 128.769531 171.183594 130.660156 173.589844 133.050781 C 175.609375 135.046875 177.25 137.394531 178.625 139.875 C 168.773438 140.273438 158.921875 140.636719 149.070312 141.042969 C 147.714844 138.097656 145.96875 135.292969 143.664062 132.996094 C 143.28125 132.59375 142.757812 132.277344 142.589844 131.722656 C 142.558594 131.289062 143.039062 131.101562 143.363281 130.9375 C 145.027344 130.238281 146.742188 129.660156 148.464844 129.125 C 151.359375 128.246094 154.316406 127.542969 157.332031 127.246094 Z M 157.332031 127.246094 " fill-opacity="1" fill-rule="nonzero"/><path fill="#ff9901" d="M 138.054688 133.398438 C 138.703125 133.078125 139.335938 132.628906 140.082031 132.601562 C 140.65625 132.660156 141.097656 133.085938 141.527344 133.429688 C 142.792969 134.566406 143.777344 135.976562 144.710938 137.390625 C 145.230469 138.195312 145.726562 139.015625 146.183594 139.859375 C 146.335938 140.164062 146.515625 140.539062 146.359375 140.882812 C 146.128906 141.234375 145.660156 141.191406 145.292969 141.203125 C 142.59375 141.167969 139.894531 141.214844 137.191406 141.292969 C 134.609375 141.410156 132.019531 141.546875 129.460938 141.964844 C 128.53125 142.125 127.589844 142.300781 126.722656 142.695312 C 128.691406 139.332031 131.765625 136.746094 135.144531 134.875 C 136.089844 134.335938 137.078125 133.878906 138.054688 133.398438 Z M 138.054688 133.398438 " fill-opacity="1" fill-rule="nonzero"/><path fill="#ff9901" d="M 200.71875 139.292969 C 206.621094 139.148438 212.523438 138.996094 218.421875 138.722656 C 224.785156 138.507812 231.167969 138.597656 237.507812 139.1875 C 242.996094 139.664062 248.472656 140.25 253.933594 140.972656 C 256.816406 141.359375 259.691406 141.773438 262.539062 142.347656 C 266.761719 143.167969 271.03125 144.003906 274.992188 145.738281 C 276.183594 146.269531 277.347656 146.867188 278.449219 147.558594 C 276.203125 146.691406 273.898438 145.953125 271.53125 145.5 C 270.523438 145.292969 269.5 145.195312 268.492188 144.992188 C 267.351562 144.898438 266.203125 145.003906 265.058594 144.988281 C 261.5 145.015625 257.929688 145.128906 254.398438 145.613281 C 253.9375 145.683594 253.40625 145.769531 253.117188 146.179688 C 252.863281 146.582031 253.054688 147.074219 253.238281 147.46875 C 254.460938 149.625 255.558594 151.851562 256.695312 154.054688 C 257.472656 155.609375 258.285156 157.148438 259.039062 158.710938 C 255.945312 153.785156 251.683594 149.613281 246.746094 146.554688 C 245.898438 146.035156 245.035156 145.542969 244.140625 145.117188 C 242.921875 144.558594 241.601562 144.25 240.28125 144.039062 C 237.738281 143.710938 235.230469 143.167969 232.703125 142.75 C 220.652344 140.664062 208.433594 139.4375 196.199219 139.421875 C 197.703125 139.316406 199.210938 139.335938 200.71875 139.292969 Z M 200.71875 139.292969 " fill-opacity="1" fill-rule="nonzero"/><path fill="#ff9901" d="M 230.804688 145.980469 C 232.710938 146.378906 234.636719 147.074219 236.101562 148.40625 C 236.953125 149.160156 237.578125 150.167969 237.851562 151.273438 C 238.027344 152 237.9375 152.816406 237.484375 153.429688 C 236.941406 154.179688 236.074219 154.617188 235.210938 154.894531 C 236 154.292969 236.8125 153.613281 237.144531 152.644531 C 237.464844 151.734375 237.167969 150.734375 236.609375 149.988281 C 235.742188 148.800781 234.511719 147.949219 233.265625 147.207031 C 232.472656 146.742188 231.648438 146.335938 230.804688 145.980469 Z M 230.804688 145.980469 " fill-opacity="1" fill-rule="nonzero"/><path fill="#ff9901" d="M 267.507812 145.972656 C 268.035156 145.90625 268.574219 145.878906 269.105469 145.9375 C 271.625 146.445312 274.175781 146.882812 276.621094 147.6875 C 277.335938 147.925781 278.054688 148.214844 278.636719 148.703125 C 279.417969 149.316406 279.917969 150.210938 280.238281 151.136719 C 280.804688 152.796875 281.398438 154.453125 281.804688 156.160156 C 281.96875 156.890625 282.160156 157.703125 281.78125 158.398438 C 281.5625 158.847656 281.042969 159.070312 280.5625 159.039062 C 275.75 158.671875 270.925781 158.484375 266.101562 158.40625 C 264.863281 158.355469 263.585938 158.523438 262.394531 158.113281 C 261.058594 157.652344 260.085938 156.546875 259.296875 155.417969 C 258.007812 153.542969 256.855469 151.574219 255.785156 149.566406 C 255.453125 148.890625 255.140625 148.113281 255.335938 147.347656 C 255.484375 146.789062 256.085938 146.542969 256.617188 146.503906 C 260.234375 146.148438 263.878906 146.152344 267.507812 145.972656 Z M 267.507812 145.972656 " fill-opacity="1" fill-rule="nonzero"/><path fill="#ff9901" d="M 227.816406 146.097656 C 229.703125 145.949219 231.484375 146.800781 233.0625 147.738281 C 234.070312 148.351562 235.046875 149.074219 235.726562 150.054688 C 236.28125 150.847656 236.566406 151.855469 236.386719 152.820312 C 236.125 153.683594 235.335938 154.285156 234.492188 154.535156 C 233.417969 154.851562 232.269531 154.808594 231.179688 154.601562 C 228.597656 154.101562 226.371094 152.226562 225.324219 149.835938 C 225 149.117188 224.953125 148.214844 225.46875 147.574219 C 226.0625 146.855469 226.851562 146.183594 227.816406 146.097656 Z M 227.816406 146.097656 " fill-opacity="1" fill-rule="nonzero"/><path fill="#ff9901" d="M 240.117188 146.148438 C 241.980469 145.832031 243.851562 146.5625 245.363281 147.609375 C 246.335938 148.273438 247.195312 149.082031 247.988281 149.941406 C 248.714844 150.691406 249.179688 151.664062 249.433594 152.667969 C 249.613281 153.472656 249.625 154.410156 249.09375 155.09375 C 248.46875 155.882812 247.390625 156.136719 246.425781 156.117188 C 243.847656 155.871094 241.398438 154.472656 239.875 152.375 C 239.320312 151.625 238.875 150.792969 238.539062 149.921875 C 238.265625 149.121094 238.191406 148.210938 238.53125 147.417969 C 238.808594 146.765625 239.421875 146.273438 240.117188 146.148438 Z M 240.117188 146.148438 " fill-opacity="1" fill-rule="nonzero"/><path fill="#ff9901" d="M 244.445312 146.429688 C 246.089844 147.320312 247.730469 148.257812 249.140625 149.496094 C 249.851562 150.140625 250.535156 150.867188 250.910156 151.761719 C 251.203125 152.433594 251.234375 153.238281 250.898438 153.902344 C 250.644531 154.441406 250.195312 154.855469 249.730469 155.21875 C 250.210938 154.335938 250.332031 153.269531 250.007812 152.316406 C 249.515625 150.789062 248.394531 149.570312 247.230469 148.515625 C 246.367188 147.730469 245.394531 147.089844 244.445312 146.429688 Z M 244.445312 146.429688 " fill-opacity="1" fill-rule="nonzero"/><path fill="#ff9901" d="M 280.71875 149.921875 C 280.765625 149.898438 280.859375 149.847656 280.90625 149.820312 C 281.363281 149.917969 281.714844 150.265625 282.042969 150.578125 C 283 151.589844 283.664062 152.832031 284.222656 154.097656 C 284.59375 154.976562 285.007812 155.859375 285.140625 156.816406 C 285.179688 157.226562 285.21875 157.710938 284.914062 158.035156 C 284.722656 158.160156 284.515625 158.003906 284.371094 157.882812 C 283.132812 156.664062 282.515625 154.984375 281.734375 153.464844 C 281.320312 152.582031 280.875 151.703125 280.644531 150.753906 C 280.605469 150.480469 280.523438 150.148438 280.71875 149.921875 Z M 280.71875 149.921875 " fill-opacity="1" fill-rule="nonzero"/><path fill="#ff9901" d="M 197.546875 152.933594 C 199.636719 152.5625 201.839844 152.578125 203.835938 153.355469 C 205.589844 154.015625 207.105469 155.214844 208.273438 156.667969 C 209.726562 158.476562 210.699219 160.632812 211.34375 162.851562 C 212.039062 165.289062 212.371094 167.828125 212.335938 170.363281 C 212.207031 172.617188 211.90625 174.875 211.3125 177.058594 C 210.746094 179.105469 209.902344 181.105469 208.613281 182.804688 C 207.480469 184.308594 205.972656 185.546875 204.230469 186.269531 C 202.253906 187.109375 200.042969 187.308594 197.925781 187.03125 C 199.769531 186.851562 201.597656 186.257812 203.085938 185.136719 C 204.777344 183.886719 205.996094 182.097656 206.828125 180.1875 C 207.90625 177.703125 208.449219 175.023438 208.761719 172.34375 C 209.101562 169.734375 209.050781 167.089844 208.726562 164.484375 C 208.441406 162.335938 207.917969 160.1875 206.917969 158.253906 C 206.058594 156.589844 204.796875 155.105469 203.167969 154.15625 C 201.488281 153.148438 199.488281 152.808594 197.546875 152.933594 Z M 197.546875 152.933594 " fill-opacity="1" fill-rule="nonzero"/><path fill="#ff9901" d="M 127.824219 158.734375 C 128.789062 160.394531 129.832031 162.039062 131.191406 163.410156 C 131.984375 164.195312 132.90625 164.871094 133.957031 165.273438 C 135.058594 165.707031 136.25 165.816406 137.421875 165.902344 C 151.613281 166.761719 165.808594 167.570312 180.003906 168.398438 C 180.863281 168.476562 181.734375 168.4375 182.589844 168.585938 C 175.863281 168.4375 169.136719 168.375 162.414062 168.25 C 153.773438 168.128906 145.140625 167.980469 136.5 167.859375 C 135.382812 167.8125 134.246094 167.914062 133.144531 167.679688 C 131.496094 167.308594 130.207031 165.9375 129.695312 164.359375 C 129.078125 162.480469 128.410156 160.621094 127.824219 158.734375 Z M 127.824219 158.734375 " fill-opacity="1" fill-rule="nonzero"/><path fill="#ff9901" d="M 138.003906 170.488281 C 138.503906 170.429688 139 170.3125 139.503906 170.316406 C 148.875 170.683594 158.253906 171.023438 167.628906 171.300781 C 171.023438 171.382812 174.417969 171.5 177.816406 171.507812 C 178.195312 171.515625 178.574219 171.554688 178.949219 171.601562 C 177.605469 171.566406 176.261719 171.714844 174.914062 171.734375 C 166.394531 172.078125 157.867188 172.101562 149.34375 172.0625 C 142.625 172.03125 135.90625 171.914062 129.191406 171.753906 C 132.125 171.308594 135.066406 170.914062 138.003906 170.488281 Z M 138.003906 170.488281 " fill-opacity="1" fill-rule="nonzero"/><g clip-path="url(#889f932dc4)"><path fill="#ff9901" d="M 216.78125 171.523438 C 216.859375 171.320312 217.082031 171.355469 217.257812 171.355469 C 222.289062 171.59375 227.320312 171.8125 232.355469 171.695312 C 233.140625 173.246094 234.488281 174.523438 236.132812 175.121094 C 237.195312 175.53125 238.34375 175.691406 239.480469 175.640625 C 248.570312 176.214844 257.675781 176.6875 266.785156 176.558594 C 270.03125 176.4375 273.273438 176.242188 276.503906 175.945312 C 279.019531 175.699219 281.53125 175.402344 284.003906 174.878906 C 285.066406 174.640625 286.132812 174.382812 287.144531 173.960938 C 287.664062 173.730469 288.214844 173.46875 288.535156 172.96875 C 289.054688 173.636719 289.289062 174.46875 289.523438 175.265625 C 289.746094 176.023438 289.597656 176.886719 289.078125 177.488281 C 288.328125 178.371094 287.214844 178.816406 286.144531 179.179688 C 283.910156 179.886719 281.574219 180.191406 279.257812 180.464844 C 273.234375 181.097656 267.179688 181.277344 261.132812 181.480469 C 248.625 181.890625 236.09375 181.519531 223.628906 180.464844 C 221.617188 180.28125 219.609375 180.097656 217.605469 179.859375 C 217.449219 179.816406 217.191406 179.839844 217.164062 179.628906 C 217.171875 176.925781 217.027344 174.214844 216.78125 171.523438 Z M 216.78125 171.523438 " fill-opacity="1" fill-rule="nonzero"/></g><path fill="#ff9901" d="M 208.007812 185.054688 C 211.398438 182.132812 213.136719 177.640625 213.328125 173.238281 C 213.628906 174.453125 213.617188 175.71875 213.695312 176.964844 C 213.734375 178.617188 213.789062 180.277344 213.691406 181.929688 C 213.761719 182.273438 214.1875 182.363281 214.484375 182.429688 C 215.925781 182.648438 217.390625 182.628906 218.84375 182.742188 C 218.433594 183.425781 217.820312 183.949219 217.261719 184.507812 C 216.398438 185.335938 215.5 186.125 214.574219 186.886719 C 213.515625 187.75 212.066406 187.6875 210.785156 187.851562 C 208.027344 188.046875 205.25 188.253906 202.488281 188 C 204.503906 187.410156 206.417969 186.433594 208.007812 185.054688 Z M 208.007812 185.054688 " fill-opacity="1" fill-rule="nonzero"/><path fill="#ff9901" d="M 107.441406 175.511719 C 109.996094 175.710938 112.539062 176.035156 115.089844 176.269531 C 126.886719 177.460938 138.6875 178.597656 150.5 179.625 C 158.402344 180.304688 166.304688 180.953125 174.222656 181.410156 C 176.164062 181.488281 178.105469 181.632812 180.046875 181.648438 C 176.910156 181.695312 173.773438 181.609375 170.636719 181.585938 C 162.691406 181.519531 154.742188 181.457031 146.796875 181.421875 C 146.226562 181.410156 145.660156 181.441406 145.089844 181.398438 C 132.539062 179.445312 119.996094 177.453125 107.441406 175.511719 Z M 107.441406 175.511719 " fill-opacity="1" fill-rule="nonzero"/><g clip-path="url(#0e55a5f205)"><path fill="#ff9901" d="M 267.945312 183.375 C 270.40625 183.304688 272.859375 183.191406 275.3125 182.984375 C 274.890625 183.753906 274.171875 184.296875 273.515625 184.851562 C 270.46875 187.230469 266.738281 188.832031 262.855469 189.058594 C 260.378906 189.199219 257.875 188.710938 255.628906 187.652344 C 253.46875 186.644531 251.546875 185.160156 249.898438 183.445312 C 255.914062 183.519531 261.929688 183.53125 267.945312 183.375 Z M 267.945312 183.375 " fill-opacity="1" fill-rule="nonzero"/></g><g clip-path="url(#b08e7bace0)"><path fill="#ffffff" d="M 139.613281 97.042969 C 142.175781 96.628906 144.742188 96.152344 147.34375 96.117188 C 139.847656 97.273438 132.433594 99.101562 125.351562 101.839844 C 118.824219 104.363281 112.65625 107.8125 107.085938 112.050781 C 101.902344 115.925781 97.257812 120.453125 92.332031 124.644531 C 86.785156 129.246094 80.726562 133.195312 74.460938 136.742188 C 61.027344 144.285156 46.664062 150.050781 32.050781 154.855469 C 25.746094 156.898438 19.390625 158.789062 12.96875 160.417969 C 12.019531 160.628906 11.089844 160.957031 10.117188 161.019531 C 13.78125 160.125 17.378906 158.976562 20.992188 157.910156 C 36.308594 153.199219 51.378906 147.523438 65.609375 140.113281 C 75.648438 134.859375 85.277344 128.695312 93.71875 121.101562 C 95.730469 119.359375 97.546875 117.40625 99.582031 115.691406 C 110.863281 105.917969 124.984375 99.695312 139.613281 97.042969 Z M 139.613281 97.042969 " fill-opacity="1" fill-rule="nonzero"/></g><path fill="#ffffff" d="M 175.140625 98.238281 C 191.382812 97.171875 207.691406 98.433594 223.78125 100.707031 C 227.988281 101.03125 231.917969 102.644531 235.878906 103.960938 C 248.289062 108.21875 260.566406 112.902344 272.46875 118.425781 C 262.304688 117.519531 252.089844 117.21875 241.886719 117.191406 C 229.691406 117.136719 217.496094 117.492188 205.320312 118.09375 C 202.417969 118.253906 199.484375 118.347656 196.617188 117.816406 C 194.339844 117.394531 192.09375 116.527344 190.3125 115.015625 C 185.464844 110.671875 180.863281 106.027344 175.625 102.140625 C 174.722656 101.425781 173.59375 100.9375 172.945312 99.949219 C 172.695312 99.617188 172.648438 99.078125 173.03125 98.828125 C 173.636719 98.386719 174.417969 98.324219 175.140625 98.238281 Z M 175.140625 98.238281 " fill-opacity="1" fill-rule="nonzero"/><path fill="#ffffff" d="M 149.136719 101.191406 C 153.28125 100.765625 157.53125 100.964844 161.546875 102.152344 C 166.882812 103.675781 171.699219 106.75 175.621094 110.652344 C 178.914062 113.902344 181.589844 117.726562 183.828125 121.765625 C 167.777344 122.414062 151.722656 123.007812 135.671875 123.667969 C 133.464844 118.867188 130.617188 114.300781 126.863281 110.558594 C 126.246094 109.90625 125.386719 109.390625 125.113281 108.484375 C 125.0625 107.777344 125.847656 107.46875 126.375 107.207031 C 129.085938 106.066406 131.878906 105.125 134.6875 104.253906 C 139.402344 102.820312 144.222656 101.671875 149.136719 101.191406 Z M 149.136719 101.191406 " fill-opacity="1" fill-rule="nonzero"/><path fill="#ffffff" d="M 117.722656 111.214844 C 118.78125 110.695312 119.8125 109.960938 121.03125 109.914062 C 121.964844 110.011719 122.683594 110.703125 123.386719 111.261719 C 125.445312 113.121094 127.050781 115.417969 128.570312 117.71875 C 129.417969 119.03125 130.222656 120.367188 130.96875 121.742188 C 131.222656 122.242188 131.511719 122.851562 131.257812 123.40625 C 130.882812 123.980469 130.117188 123.914062 129.519531 123.929688 C 125.121094 123.871094 120.71875 123.949219 116.324219 124.078125 C 112.113281 124.265625 107.890625 124.492188 103.726562 125.171875 C 102.210938 125.433594 100.675781 125.722656 99.265625 126.359375 C 102.472656 120.882812 107.480469 116.671875 112.984375 113.625 C 114.523438 112.742188 116.132812 112 117.722656 111.214844 Z M 117.722656 111.214844 " fill-opacity="1" fill-rule="nonzero"/><path fill="#ffffff" d="M 219.824219 120.820312 C 229.441406 120.585938 239.058594 120.335938 248.667969 119.890625 C 259.035156 119.539062 269.433594 119.6875 279.769531 120.644531 C 288.707031 121.425781 297.632812 122.378906 306.527344 123.554688 C 311.222656 124.183594 315.90625 124.863281 320.550781 125.792969 C 327.429688 127.128906 334.386719 128.492188 340.839844 131.320312 C 342.777344 132.183594 344.675781 133.15625 346.472656 134.285156 C 342.8125 132.875 339.054688 131.667969 335.199219 130.933594 C 333.558594 130.597656 331.890625 130.433594 330.25 130.105469 C 328.386719 129.953125 326.515625 130.121094 324.652344 130.097656 C 318.851562 130.144531 313.039062 130.328125 307.285156 131.113281 C 306.535156 131.234375 305.664062 131.371094 305.199219 132.035156 C 304.78125 132.695312 305.097656 133.5 305.394531 134.136719 C 307.386719 137.652344 309.175781 141.28125 311.027344 144.871094 C 312.292969 147.402344 313.617188 149.910156 314.84375 152.460938 C 309.808594 144.433594 302.863281 137.636719 294.8125 132.648438 C 293.4375 131.804688 292.03125 131 290.570312 130.308594 C 288.582031 129.394531 286.433594 128.894531 284.28125 128.554688 C 280.140625 128.019531 276.054688 127.136719 271.9375 126.453125 C 252.300781 123.050781 232.390625 121.058594 212.457031 121.027344 C 214.910156 120.855469 217.367188 120.890625 219.824219 120.820312 Z M 219.824219 120.820312 " fill-opacity="1" fill-rule="nonzero"/><path fill="#ffffff" d="M 268.839844 131.714844 C 271.953125 132.367188 275.085938 133.496094 277.476562 135.664062 C 278.859375 136.898438 279.882812 138.539062 280.320312 140.339844 C 280.613281 141.523438 280.460938 142.855469 279.726562 143.851562 C 278.84375 145.074219 277.425781 145.785156 276.023438 146.238281 C 277.308594 145.257812 278.636719 144.152344 279.175781 142.570312 C 279.695312 141.089844 279.207031 139.460938 278.304688 138.242188 C 276.890625 136.3125 274.882812 134.921875 272.851562 133.710938 C 271.558594 132.957031 270.21875 132.292969 268.839844 131.714844 Z M 268.839844 131.714844 " fill-opacity="1" fill-rule="nonzero"/><path fill="#ffffff" d="M 328.640625 131.703125 C 329.503906 131.59375 330.378906 131.550781 331.25 131.644531 C 335.355469 132.472656 339.503906 133.1875 343.496094 134.5 C 344.660156 134.882812 345.828125 135.351562 346.777344 136.148438 C 348.050781 137.148438 348.863281 138.605469 349.386719 140.117188 C 350.308594 142.820312 351.273438 145.519531 351.9375 148.300781 C 352.207031 149.488281 352.515625 150.816406 351.898438 151.949219 C 351.539062 152.679688 350.695312 153.039062 349.914062 152.988281 C 342.074219 152.394531 334.210938 152.085938 326.351562 151.957031 C 324.335938 151.875 322.253906 152.148438 320.316406 151.480469 C 318.136719 150.730469 316.546875 148.929688 315.265625 147.09375 C 313.164062 144.035156 311.285156 140.828125 309.542969 137.558594 C 309 136.453125 308.496094 135.1875 308.808594 133.945312 C 309.058594 133.035156 310.035156 132.628906 310.898438 132.570312 C 316.792969 131.988281 322.726562 131.996094 328.640625 131.703125 Z M 328.640625 131.703125 " fill-opacity="1" fill-rule="nonzero"/><path fill="#ffffff" d="M 263.976562 131.90625 C 267.046875 131.660156 269.953125 133.050781 272.519531 134.582031 C 274.160156 135.582031 275.753906 136.757812 276.863281 138.351562 C 277.765625 139.644531 278.230469 141.289062 277.9375 142.855469 C 277.511719 144.269531 276.222656 145.246094 274.851562 145.652344 C 273.105469 146.171875 271.226562 146.097656 269.453125 145.757812 C 265.25 144.945312 261.617188 141.894531 259.917969 137.996094 C 259.386719 136.824219 259.308594 135.351562 260.152344 134.308594 C 261.117188 133.136719 262.40625 132.046875 263.976562 131.90625 Z M 263.976562 131.90625 " fill-opacity="1" fill-rule="nonzero"/><path fill="#ffffff" d="M 284.015625 131.988281 C 287.054688 131.472656 290.097656 132.664062 292.566406 134.367188 C 294.148438 135.449219 295.546875 136.769531 296.839844 138.171875 C 298.023438 139.390625 298.777344 140.976562 299.195312 142.609375 C 299.484375 143.925781 299.503906 145.449219 298.640625 146.5625 C 297.621094 147.851562 295.863281 148.265625 294.296875 148.230469 C 290.09375 147.832031 286.101562 145.554688 283.621094 142.136719 C 282.71875 140.910156 281.992188 139.554688 281.445312 138.132812 C 281 136.828125 280.878906 135.347656 281.429688 134.058594 C 281.882812 132.996094 282.882812 132.195312 284.015625 131.988281 Z M 284.015625 131.988281 " fill-opacity="1" fill-rule="nonzero"/><path fill="#ffffff" d="M 291.066406 132.445312 C 293.746094 133.898438 296.421875 135.425781 298.71875 137.445312 C 299.878906 138.496094 300.988281 139.671875 301.601562 141.136719 C 302.074219 142.230469 302.128906 143.542969 301.582031 144.617188 C 301.167969 145.503906 300.433594 146.175781 299.675781 146.765625 C 300.464844 145.332031 300.65625 143.589844 300.132812 142.035156 C 299.332031 139.546875 297.503906 137.566406 295.605469 135.84375 C 294.203125 134.570312 292.617188 133.523438 291.066406 132.445312 Z M 291.066406 132.445312 " fill-opacity="1" fill-rule="nonzero"/><path fill="#ffffff" d="M 350.167969 138.136719 C 350.246094 138.09375 350.398438 138.015625 350.476562 137.972656 C 351.21875 138.132812 351.792969 138.691406 352.328125 139.203125 C 353.882812 140.851562 354.964844 142.878906 355.878906 144.9375 C 356.484375 146.371094 357.15625 147.808594 357.371094 149.367188 C 357.4375 150.035156 357.5 150.828125 357.003906 151.355469 C 356.691406 151.558594 356.351562 151.304688 356.121094 151.109375 C 354.101562 149.117188 353.09375 146.386719 351.820312 143.910156 C 351.148438 142.472656 350.425781 141.039062 350.050781 139.488281 C 349.980469 139.050781 349.847656 138.507812 350.167969 138.136719 Z M 350.167969 138.136719 " fill-opacity="1" fill-rule="nonzero"/><path fill="#ffffff" d="M 214.660156 143.046875 C 218.058594 142.4375 221.652344 142.464844 224.90625 143.734375 C 227.761719 144.804688 230.230469 146.761719 232.132812 149.125 C 234.503906 152.074219 236.085938 155.589844 237.136719 159.203125 C 238.269531 163.175781 238.8125 167.3125 238.753906 171.441406 C 238.542969 175.117188 238.054688 178.789062 237.082031 182.347656 C 236.164062 185.683594 234.789062 188.941406 232.691406 191.714844 C 230.84375 194.164062 228.386719 196.175781 225.546875 197.359375 C 222.324219 198.722656 218.726562 199.050781 215.277344 198.597656 C 218.28125 198.308594 221.253906 197.335938 223.683594 195.515625 C 226.4375 193.476562 228.421875 190.558594 229.777344 187.445312 C 231.539062 183.402344 232.417969 179.03125 232.929688 174.667969 C 233.480469 170.417969 233.402344 166.105469 232.871094 161.859375 C 232.40625 158.359375 231.554688 154.863281 229.925781 151.710938 C 228.527344 149 226.46875 146.578125 223.816406 145.035156 C 221.078125 143.394531 217.816406 142.84375 214.660156 143.046875 Z M 214.660156 143.046875 " fill-opacity="1" fill-rule="nonzero"/><path fill="#ffffff" d="M 101.054688 152.496094 C 102.632812 155.203125 104.328125 157.882812 106.546875 160.113281 C 107.839844 161.394531 109.339844 162.492188 111.046875 163.148438 C 112.84375 163.855469 114.785156 164.035156 116.691406 164.171875 C 139.816406 165.578125 162.945312 166.890625 186.070312 168.242188 C 187.476562 168.371094 188.894531 168.300781 190.285156 168.546875 C 179.332031 168.304688 168.371094 168.199219 157.414062 168 C 143.339844 167.800781 129.269531 167.5625 115.195312 167.359375 C 113.375 167.28125 111.519531 167.453125 109.726562 167.066406 C 107.039062 166.464844 104.941406 164.230469 104.105469 161.65625 C 103.101562 158.597656 102.011719 155.566406 101.054688 152.496094 Z M 101.054688 152.496094 " fill-opacity="1" fill-rule="nonzero"/><path fill="#ffffff" d="M 117.644531 171.648438 C 118.457031 171.550781 119.261719 171.355469 120.085938 171.363281 C 135.359375 171.964844 150.632812 172.515625 165.910156 172.964844 C 171.441406 173.105469 176.972656 173.289062 182.507812 173.308594 C 183.125 173.320312 183.742188 173.378906 184.359375 173.460938 C 182.164062 173.402344 179.976562 173.644531 177.78125 173.671875 C 163.902344 174.238281 150.003906 174.273438 136.117188 174.210938 C 125.167969 174.15625 114.222656 173.96875 103.28125 173.710938 C 108.0625 172.980469 112.859375 172.339844 117.644531 171.648438 Z M 117.644531 171.648438 " fill-opacity="1" fill-rule="nonzero"/><path fill="#ffffff" d="M 245.992188 173.332031 C 246.121094 173 246.488281 173.058594 246.773438 173.058594 C 254.964844 173.449219 263.167969 173.800781 271.371094 173.609375 C 272.652344 176.140625 274.84375 178.21875 277.523438 179.195312 C 279.253906 179.859375 281.128906 180.121094 282.980469 180.039062 C 297.785156 180.976562 312.625 181.75 327.46875 181.535156 C 332.753906 181.339844 338.035156 181.023438 343.300781 180.535156 C 347.398438 180.132812 351.492188 179.648438 355.519531 178.796875 C 357.253906 178.414062 358.992188 177.992188 360.632812 177.300781 C 361.484375 176.925781 362.382812 176.5 362.902344 175.6875 C 363.75 176.773438 364.128906 178.128906 364.515625 179.429688 C 364.875 180.664062 364.636719 182.070312 363.789062 183.050781 C 362.5625 184.484375 360.75 185.214844 359.007812 185.804688 C 355.367188 186.953125 351.5625 187.453125 347.785156 187.898438 C 337.976562 188.933594 328.105469 189.226562 318.253906 189.558594 C 297.875 190.222656 277.460938 189.621094 257.148438 187.898438 C 253.875 187.605469 250.601562 187.300781 247.339844 186.914062 C 247.082031 186.84375 246.664062 186.882812 246.621094 186.539062 C 246.628906 182.132812 246.394531 177.71875 245.992188 173.332031 Z M 245.992188 173.332031 " fill-opacity="1" fill-rule="nonzero"/><path fill="#ffffff" d="M 231.703125 195.378906 C 237.226562 190.621094 240.058594 183.300781 240.367188 176.125 C 240.859375 178.109375 240.839844 180.167969 240.96875 182.195312 C 241.03125 184.890625 241.117188 187.59375 240.960938 190.289062 C 241.078125 190.84375 241.769531 190.996094 242.253906 191.101562 C 244.601562 191.457031 246.988281 191.425781 249.355469 191.613281 C 248.691406 192.726562 247.683594 193.578125 246.777344 194.488281 C 245.371094 195.835938 243.90625 197.125 242.402344 198.363281 C 240.675781 199.765625 238.3125 199.667969 236.226562 199.933594 C 231.730469 200.253906 227.203125 200.589844 222.707031 200.175781 C 225.992188 199.21875 229.109375 197.628906 231.703125 195.378906 Z M 231.703125 195.378906 " fill-opacity="1" fill-rule="nonzero"/><path fill="#ffffff" d="M 67.847656 179.828125 C 72.011719 180.152344 76.152344 180.683594 80.3125 181.066406 C 99.53125 183.007812 118.761719 184.855469 138.003906 186.53125 C 150.875 187.636719 163.753906 188.695312 176.652344 189.441406 C 179.820312 189.566406 182.976562 189.804688 186.144531 189.828125 C 181.035156 189.902344 175.921875 189.765625 170.8125 189.726562 C 157.863281 189.617188 144.917969 189.511719 131.96875 189.460938 C 131.042969 189.441406 130.113281 189.492188 129.191406 189.421875 C 108.738281 186.242188 88.300781 182.992188 67.847656 179.828125 Z M 67.847656 179.828125 " fill-opacity="1" fill-rule="nonzero"/><path fill="#ffffff" d="M 329.355469 192.640625 C 333.363281 192.527344 337.367188 192.34375 341.359375 192.007812 C 340.671875 193.261719 339.503906 194.144531 338.433594 195.050781 C 333.464844 198.921875 327.390625 201.535156 321.066406 201.902344 C 317.03125 202.132812 312.945312 201.335938 309.292969 199.609375 C 305.765625 197.964844 302.640625 195.546875 299.949219 192.757812 C 309.753906 192.875 319.558594 192.898438 329.355469 192.640625 Z M 329.355469 192.640625 " fill-opacity="1" fill-rule="nonzero"/><path fill="#ffffff" d="M 19.882812 254.566406 L 340.921875 254.566406 L 340.921875 260.488281 L 19.882812 260.488281 Z M 19.882812 254.566406 " fill-opacity="1" fill-rule="nonzero"/><g fill="#ffffff" fill-opacity="1"><g transform="translate(19.884598, 251.013612)"><g><path d="M 1.351562 0 L 31.542969 0 L 33.566406 -10.125 L 15.832031 -10.125 L 17.183594 -16.753906 L 32.523438 -16.753906 L 34.550781 -26.695312 L 19.144531 -26.695312 L 20.375 -32.953125 L 37.496094 -32.953125 L 39.457031 -42.957031 L 9.941406 -42.957031 Z M 1.351562 0 "/></g></g></g><g fill="#ffffff" fill-opacity="1"><g transform="translate(57.435436, 251.013612)"><g><path d="M -2.945312 0 L 11.046875 0 L 14.667969 -6.074219 L 29.394531 -6.074219 L 30.4375 0 L 42.710938 0 L 34.671875 -42.957031 L 22.335938 -42.957031 Z M 18.960938 -15.15625 L 26.265625 -28.472656 L 28.351562 -15.15625 Z M 18.960938 -15.15625 "/></g></g></g><g fill="#ffffff" fill-opacity="1"><g transform="translate(103.699047, 251.013612)"><g><path d="M 17.242188 0.921875 C 27.921875 0.921875 34.488281 -3.804688 36.023438 -11.414062 C 37.496094 -18.839844 32.953125 -24.054688 23.625 -25.957031 C 18.59375 -27 16.691406 -28.472656 17.304688 -31.234375 C 17.671875 -33.136719 19.574219 -34.425781 22.398438 -34.425781 C 26.140625 -34.425781 27.554688 -32.15625 27 -29.515625 L 38.785156 -29.515625 C 40.011719 -38.230469 34.058594 -43.878906 23.441406 -43.878906 C 12.949219 -43.878906 6.8125 -39.273438 5.339844 -31.847656 C 3.742188 -23.871094 8.835938 -18.777344 17.550781 -17.304688 C 22.398438 -16.570312 24.238281 -14.789062 23.6875 -12.089844 C 23.257812 -9.941406 21.234375 -8.714844 18.226562 -8.714844 C 14.667969 -8.714844 13.070312 -10.492188 13.5625 -13.746094 L 1.839844 -13.746094 C -0.0625 -4.601562 5.828125 0.921875 17.242188 0.921875 Z M 17.242188 0.921875 "/></g></g></g><g fill="#ffffff" fill-opacity="1"><g transform="translate(142.845181, 251.013612)"><g><path d="M 12.519531 0 L 24.851562 0 L 27.800781 -14.484375 L 49.277344 -42.957031 L 34.179688 -42.957031 L 23.320312 -27.492188 L 21.292969 -34.058594 L 18.53125 -42.957031 L 5.644531 -42.957031 L 15.648438 -15.402344 Z M 12.519531 0 "/></g></g></g><g fill="#ffffff" fill-opacity="1"><g transform="translate(187.083993, 251.013612)"><g/></g></g><g fill="#ffffff" fill-opacity="1"><g transform="translate(201.2576, 251.013612)"><g><path d="M 22.335938 0.921875 C 33.875 0.921875 43.449219 -5.890625 47.496094 -17.183594 L 34.855469 -17.183594 C 32.464844 -13.070312 28.230469 -10.554688 23.6875 -10.554688 C 17.613281 -10.554688 14.484375 -14.910156 15.769531 -21.417969 C 17.058594 -27.921875 22.09375 -32.402344 28.230469 -32.402344 C 32.707031 -32.402344 35.898438 -29.945312 36.453125 -26.019531 L 48.847656 -26.019531 C 48.726562 -36.695312 40.625 -43.878906 28.902344 -43.878906 C 16.140625 -43.878906 5.953125 -35.410156 3.3125 -22.398438 C 0.550781 -8.835938 8.46875 0.921875 22.335938 0.921875 Z M 22.335938 0.921875 "/></g></g></g><g fill="#ffffff" fill-opacity="1"><g transform="translate(250.466378, 251.013612)"><g><path d="M -2.945312 0 L 11.046875 0 L 14.667969 -6.074219 L 29.394531 -6.074219 L 30.4375 0 L 42.710938 0 L 34.671875 -42.957031 L 22.335938 -42.957031 Z M 18.960938 -15.15625 L 26.265625 -28.472656 L 28.351562 -15.15625 Z M 18.960938 -15.15625 "/></g></g></g><g fill="#ffffff" fill-opacity="1"><g transform="translate(296.72999, 251.013612)"><g><path d="M 1.351562 0 L 13.683594 0 L 16.199219 -12.210938 L 20.863281 -12.210938 L 24.546875 0 L 38.539062 0 L 33.566406 -14.238281 C 38.539062 -16.628906 41.914062 -20.863281 43.078125 -26.632812 C 45.105469 -36.574219 39.644531 -42.957031 29.210938 -42.957031 L 9.941406 -42.957031 Z M 17.917969 -22.09375 L 20.066406 -32.832031 L 25.773438 -32.832031 C 29.761719 -32.832031 31.480469 -30.867188 30.746094 -27.492188 C 30.070312 -24.054688 27.492188 -22.09375 23.566406 -22.09375 Z M 17.917969 -22.09375 "/></g></g></g><path fill="#ffffff" d="M 340.921875 254.566406 L 355.09375 254.566406 L 355.09375 260.488281 L 340.921875 260.488281 Z M 340.921875 254.566406 " fill-opacity="1" fill-rule="nonzero"/><g fill="#ffffff" fill-opacity="1"><g transform="translate(340.920701, 251.013612)"><g/></g></g><path fill="#975af9" d="M 88.324219 293.832031 L 298.320312 293.832031 L 298.320312 296.199219 L 88.324219 296.199219 Z M 88.324219 293.832031 " fill-opacity="1" fill-rule="nonzero"/><g fill="#975af9" fill-opacity="1"><g transform="translate(88.323031, 291.464187)"><g><path d="M 0.746094 0 L 7.542969 0 L 8.933594 -6.734375 L 11.503906 -6.734375 L 13.535156 0 L 21.246094 0 L 18.507812 -7.847656 C 21.246094 -9.167969 23.109375 -11.503906 23.75 -14.683594 C 24.867188 -20.164062 21.855469 -23.683594 16.105469 -23.683594 L 5.480469 -23.683594 Z M 9.878906 -12.179688 L 11.0625 -18.101562 L 14.210938 -18.101562 C 16.410156 -18.101562 17.355469 -17.019531 16.949219 -15.15625 C 16.578125 -13.261719 15.15625 -12.179688 12.992188 -12.179688 Z M 9.878906 -12.179688 "/></g></g></g><g fill="#975af9" fill-opacity="1"><g transform="translate(124.352961, 291.464187)"><g><path d="M 0.746094 0 L 17.390625 0 L 18.507812 -5.582031 L 8.730469 -5.582031 L 9.472656 -9.238281 L 17.933594 -9.238281 L 19.046875 -14.71875 L 10.554688 -14.71875 L 11.234375 -18.167969 L 20.671875 -18.167969 L 21.753906 -23.683594 L 5.480469 -23.683594 Z M 0.746094 0 "/></g></g></g><g fill="#975af9" fill-opacity="1"><g transform="translate(156.729855, 291.464187)"><g><path d="M 0.746094 0 L 7.476562 0 L 9.304688 -9 L 9.914062 -12.144531 L 16.78125 0 L 22.027344 0 L 26.761719 -23.683594 L 20.03125 -23.683594 L 18.203125 -14.617188 L 17.59375 -11.503906 L 10.726562 -23.683594 L 5.480469 -23.683594 Z M 0.746094 0 "/></g></g></g><g fill="#975af9" fill-opacity="1"><g transform="translate(194.755433, 291.464187)"><g><path d="M 6.292969 0 L 13.230469 0 L 16.679688 -17.355469 L 23.820312 -17.355469 L 25.105469 -23.683594 L 3.925781 -23.683594 L 2.640625 -17.355469 L 9.742188 -17.355469 Z M 6.292969 0 "/></g></g></g><g fill="#975af9" fill-opacity="1"><g transform="translate(229.533869, 291.464187)"><g><path d="M -1.625 0 L 6.089844 0 L 8.085938 -3.347656 L 16.207031 -3.347656 L 16.78125 0 L 23.546875 0 L 19.117188 -23.683594 L 12.316406 -23.683594 Z M 10.453125 -8.355469 L 14.480469 -15.699219 L 15.632812 -8.355469 Z M 10.453125 -8.355469 "/></g></g></g><g fill="#975af9" fill-opacity="1"><g transform="translate(266.713841, 291.464187)"><g><path d="M 0.746094 0 L 17.289062 0 L 18.539062 -6.328125 L 8.933594 -6.328125 L 12.417969 -23.683594 L 5.480469 -23.683594 Z M 0.746094 0 "/></g></g></g></svg>